M48
; DRILL file {KiCad 9.0.2} date 2025-08-27T11:59:44-0500
; FORMAT={-:-/ absolute / metric / decimal}
; #@! TF.CreationDate,2025-08-27T11:59:44-05:00
; #@! TF.GenerationSoftware,Kicad,Pcbnew,9.0.2
; #@! TF.FileFunction,Plated,1,4,PTH
FMAT,2
METRIC
; #@! TA.AperFunction,Plated,PTH,ViaDrill
T1C0.250
; #@! TA.AperFunction,Plated,PTH,ViaDrill
T2C0.300
; #@! TA.AperFunction,Plated,PTH,ComponentDrill
T3C0.300
; #@! TA.AperFunction,Plated,PTH,ComponentDrill
T4C0.600
; #@! TA.AperFunction,Plated,PTH,ComponentDrill
T5C0.800
; #@! TA.AperFunction,Plated,PTH,ComponentDrill
T6C1.000
; #@! TA.AperFunction,Plated,PTH,ComponentDrill
T7C1.020
; #@! TA.AperFunction,Plated,PTH,ComponentDrill
T8C1.100
; #@! TA.AperFunction,Plated,PTH,ComponentDrill
T9C1.500
; #@! TA.AperFunction,Plated,PTH,ComponentDrill
T10C4.300
%
G90
G05
T1
X175.949Y-63.849
X176.663Y-63.845
X177.338Y-63.913
X182.601Y-62.463
X182.732Y-63.35
X182.982Y-59.284
X183.286Y-61.163
X183.345Y-59.989
T2
X79.5Y-52.05
X79.5Y-54.05
X79.5Y-56.05
X79.5Y-58.05
X79.6Y-60.0
X79.6Y-62.0
X79.6Y-64.0
X79.6Y-66.0
X79.6Y-68.0
X79.6Y-70.0
X79.6Y-72.0
X79.6Y-74.0
X79.65Y-75.95
X79.65Y-77.95
X79.65Y-79.95
X79.65Y-81.95
X79.65Y-83.95
X79.65Y-85.95
X79.65Y-87.95
X79.65Y-89.95
X79.65Y-92.6
X79.65Y-94.6
X79.65Y-96.6
X79.65Y-98.6
X79.65Y-100.6
X79.65Y-102.6
X79.65Y-104.6
X79.75Y-106.55
X79.75Y-108.55
X79.75Y-110.55
X79.75Y-112.55
X79.75Y-114.55
X79.75Y-116.55
X79.75Y-118.55
X79.75Y-120.55
X79.8Y-122.5
X79.8Y-124.5
X79.8Y-126.5
X83.95Y-54.4
X84.3Y-88.0
X84.6Y-81.8
X84.65Y-66.25
X84.65Y-124.0
X84.7Y-110.25
X86.05Y-60.0
X86.15Y-77.75
X87.0Y-42.95
X87.1Y-116.7
X87.45Y-71.7
X88.2Y-85.45
X89.0Y-42.95
X89.4Y-135.65
X89.85Y-66.1
X89.95Y-109.2
X90.2Y-79.9
X90.45Y-112.5
X90.478Y-46.757
X90.578Y-44.207
X91.0Y-42.95
X91.0Y-56.2
X91.05Y-121.55
X91.1Y-126.95
X91.15Y-61.2
X91.4Y-135.65
X91.928Y-47.057
X91.95Y-131.75
X92.0Y-75.05
X93.0Y-42.95
X93.4Y-135.65
X94.05Y-115.7
X94.428Y-46.057
X95.15Y-64.7
X95.35Y-119.4
X95.4Y-135.65
X95.478Y-44.257
X95.5Y-112.5
X95.75Y-78.6
X95.95Y-124.25
X96.3Y-52.05
X96.7Y-108.9
X97.4Y-58.1
X97.4Y-135.65
X97.578Y-50.207
X97.85Y-129.2
X98.228Y-45.957
X98.378Y-50.207
X98.7Y-75.6
X99.247Y-50.176
X99.4Y-135.65
X99.466Y-65.38
X99.795Y-46.65
X100.078Y-49.936
X100.378Y-44.157
X100.5Y-120.9
X100.55Y-115.95
X101.0Y-111.65
X101.15Y-43.1
X101.35Y-51.45
X101.4Y-135.65
X101.65Y-82.0
X102.4Y-132.25
X102.553Y-50.132
X102.75Y-126.0
X102.85Y-78.6
X102.978Y-45.657
X103.15Y-43.1
X103.35Y-135.55
X103.478Y-50.157
X103.6Y-109.5
X103.65Y-58.75
X104.278Y-50.157
X104.45Y-116.55
X104.722Y-46.657
X105.35Y-135.55
X105.378Y-44.307
X105.55Y-55.65
X105.7Y-48.4
X105.7Y-112.2
X106.172Y-65.735
X106.45Y-52.05
X106.75Y-85.7
X106.9Y-121.9
X107.256Y-65.007
X107.35Y-135.55
X107.5Y-107.15
X107.75Y-102.35
X107.9Y-129.85
X108.1Y-79.65
X108.3Y-56.85
X108.3Y-69.35
X108.35Y-95.95
X108.5Y-48.0
X108.6Y-76.0
X108.65Y-110.15
X109.15Y-43.1
X109.3Y-99.5
X109.303Y-61.795
X109.35Y-135.55
X109.75Y-73.05
X111.15Y-43.1
X111.35Y-89.35
X111.35Y-135.55
X111.45Y-82.8
X111.5Y-64.45
X111.55Y-104.65
X111.835Y-50.235
X112.75Y-108.2
X112.85Y-121.35
X113.1Y-43.05
X113.35Y-135.55
X113.93Y-116.29
X113.944Y-115.281
X113.99Y-127.86
X114.004Y-126.851
X114.05Y-97.45
X114.1Y-75.5
X114.7Y-79.45
X114.77Y-115.75
X114.83Y-127.32
X114.85Y-67.05
X114.9Y-101.5
X115.1Y-43.05
X115.35Y-135.55
X115.5Y-47.25
X115.6Y-63.15
X115.75Y-70.4
X116.4Y-56.3
X116.5Y-49.85
X116.5Y-85.25
X116.6Y-59.6
X116.7Y-73.45
X117.05Y-48.3
X117.1Y-43.05
X117.25Y-45.4
X117.3Y-106.2
X118.1Y-91.2
X118.7Y-53.4
X119.05Y-101.1
X119.1Y-43.05
X119.1Y-96.75
X120.1Y-57.75
X120.1Y-65.25
X120.25Y-81.6
X120.3Y-77.25
X120.5Y-50.45
X120.95Y-46.0
X121.1Y-43.05
X121.615Y-91.897
X121.7Y-88.8
X122.15Y-70.4
X123.0Y-106.25
X123.1Y-43.05
X123.3Y-135.5
X123.85Y-92.35
X124.05Y-98.35
X124.3Y-59.8
X124.7Y-85.7
X124.85Y-79.1
X125.1Y-43.05
X125.2Y-66.5
X125.3Y-135.5
X126.6Y-48.3
X127.1Y-43.05
X127.35Y-95.65
X127.45Y-58.75
X127.5Y-103.05
X128.05Y-63.7
X128.05Y-81.85
X128.25Y-88.1
X128.5Y-70.35
X129.05Y-42.95
X129.184Y-90.764
X130.2Y-97.6
X130.25Y-92.45
X130.35Y-50.85
X130.6Y-75.75
X130.8Y-105.85
X131.05Y-42.95
X131.3Y-135.5
X131.724Y-89.967
X131.86Y-56.94
X131.87Y-56.26
X132.2Y-81.4
X132.7Y-58.15
X132.95Y-100.75
X133.3Y-135.5
X133.7Y-88.9
X134.65Y-73.7
X134.65Y-90.3
X134.7Y-67.0
X135.5Y-56.125
X135.65Y-108.85
X135.7Y-95.55
X135.95Y-135.5
X136.55Y-76.8
X136.611Y-54.98
X136.7Y-79.55
X137.05Y-42.95
X137.1Y-66.75
X137.312Y-83.21
X137.95Y-108.35
X138.2Y-70.5
X138.25Y-84.55
X138.25Y-96.35
X138.989Y-71.7
X139.05Y-42.95
X139.5Y-85.3
X139.5Y-90.85
X139.5Y-98.65
X139.55Y-104.85
X140.043Y-51.879
X141.05Y-42.95
X141.65Y-87.35
X141.79Y-96.0
X141.935Y-59.03
X141.95Y-135.5
X142.189Y-82.702
X142.342Y-58.471
X142.748Y-59.03
X142.75Y-73.15
X142.8Y-79.95
X143.05Y-42.95
X143.8Y-70.3
X143.95Y-135.5
X144.0Y-90.3
X144.05Y-107.9
X144.61Y-68.76
X144.628Y-51.46
X144.7Y-103.6
X144.85Y-83.8
X144.95Y-100.0
X145.0Y-42.9
X146.35Y-60.375
X146.35Y-61.1
X146.65Y-69.65
X147.0Y-42.9
X147.1Y-87.95
X147.25Y-83.7
X147.65Y-75.25
X147.676Y-56.947
X147.7Y-109.05
X148.15Y-53.3
X148.45Y-97.3
X148.55Y-55.9
X149.0Y-42.9
X149.05Y-64.05
X149.15Y-69.3
X149.403Y-73.073
X149.74Y-85.73
X149.75Y-66.55
X149.85Y-78.95
X150.15Y-83.2
X150.25Y-99.3
X150.35Y-106.5
X150.4Y-91.15
X151.0Y-42.9
X151.85Y-64.4
X152.45Y-77.7
X152.5Y-86.4
X152.55Y-65.8
X152.9Y-93.15
X153.0Y-42.9
X153.2Y-108.45
X153.35Y-121.1
X153.9Y-135.4
X153.95Y-127.3
X154.05Y-62.3
X154.15Y-60.15
X154.85Y-100.85
X154.9Y-79.05
X154.95Y-73.9
X154.95Y-89.1
X154.95Y-94.65
X155.0Y-42.9
X155.3Y-112.85
X155.6Y-62.85
X155.9Y-135.4
X156.0Y-123.65
X156.2Y-57.2
X156.25Y-75.0
X156.3Y-88.15
X156.35Y-80.35
X156.4Y-49.25
X156.5Y-129.15
X156.85Y-96.25
X156.95Y-59.4
X157.0Y-42.9
X157.7Y-71.05
X157.715Y-57.385
X157.785Y-63.5
X157.787Y-62.131
X157.9Y-135.4
X157.95Y-83.7
X158.05Y-81.7
X158.1Y-65.25
X158.15Y-74.45
X158.445Y-62.907
X158.532Y-64.4
X158.547Y-57.912
X158.65Y-60.95
X158.65Y-79.65
X158.699Y-65.989
X159.0Y-42.9
X159.169Y-58.825
X159.2Y-56.0
X159.3Y-108.7
X159.5Y-99.85
X159.766Y-56.6
X159.9Y-135.4
X159.95Y-59.487
X160.55Y-68.15
X160.63Y-60.3
X160.725Y-52.1
X161.0Y-42.9
X161.0Y-44.7
X161.0Y-102.4
X161.4Y-71.15
X161.5Y-81.7
X161.55Y-83.25
X161.6Y-46.55
X161.688Y-60.826
X161.75Y-76.85
X161.9Y-135.4
X162.3Y-53.05
X162.6Y-61.305
X162.8Y-54.25
X163.0Y-49.4
X163.2Y-47.15
X163.4Y-61.305
X163.845Y-111.05
X163.9Y-135.4
X164.05Y-100.1
X164.15Y-126.3
X164.161Y-61.552
X164.5Y-76.5
X165.0Y-61.282
X165.3Y-82.0
X165.85Y-135.35
X166.0Y-66.55
X166.4Y-73.7
X166.65Y-104.95
X167.45Y-79.4
X167.85Y-135.35
X169.05Y-47.15
X169.25Y-51.328
X169.6Y-55.022
X169.6Y-56.179
X169.6Y-58.535
X169.659Y-53.814
X169.7Y-57.378
X169.8Y-52.657
X169.85Y-135.35
X170.3Y-54.444
X170.304Y-55.601
X170.4Y-52.078
X170.4Y-56.8
X170.458Y-57.956
X170.5Y-53.236
X170.95Y-47.15
X171.201Y-58.85
X171.6Y-61.3
X171.85Y-135.35
X172.36Y-68.29
X172.434Y-58.434
X172.65Y-61.75
X172.75Y-90.15
X172.8Y-47.95
X173.1Y-47.2
X173.205Y-66.105
X173.4Y-48.95
X173.75Y-48.05
X173.75Y-50.0
X173.8Y-55.128
X173.85Y-135.35
X173.92Y-62.287
X173.95Y-47.15
X174.3Y-49.45
X174.35Y-48.65
X174.5Y-47.85
X174.5Y-50.55
X174.75Y-47.0
X174.9Y-49.85
X175.05Y-122.0
X175.1Y-49.15
X175.1Y-63.18
X175.15Y-48.35
X175.4Y-47.65
X175.5Y-50.4
X175.55Y-46.9
X175.8Y-49.75
X175.85Y-135.35
X175.9Y-48.95
X176.0Y-48.25
X176.05Y-65.129
X176.25Y-47.503
X176.27Y-66.87
X176.479Y-46.939
X176.5Y-56.85
X176.5Y-57.85
X176.5Y-58.85
X176.5Y-59.85
X176.5Y-60.85
X176.75Y-48.0
X176.75Y-48.75
X177.05Y-47.45
X177.35Y-48.55
X177.444Y-47.904
X177.5Y-56.85
X177.5Y-57.85
X177.5Y-58.85
X177.5Y-59.85
X177.5Y-60.85
X177.85Y-135.35
X177.851Y-47.385
X177.95Y-48.717
X177.97Y-65.13
X178.15Y-101.8
X178.156Y-48.006
X178.5Y-47.45
X178.5Y-56.85
X178.5Y-57.85
X178.5Y-58.85
X178.5Y-59.85
X178.5Y-60.85
X178.862Y-63.278
X178.95Y-48.45
X178.978Y-64.141
X179.3Y-47.5
X179.5Y-56.85
X179.5Y-57.85
X179.5Y-58.85
X179.5Y-59.85
X179.5Y-60.85
X179.85Y-135.35
X180.05Y-47.4
X180.05Y-98.4
X180.155Y-64.035
X180.25Y-110.5
X180.5Y-48.0
X180.5Y-52.39
X180.5Y-56.85
X180.5Y-57.85
X180.5Y-58.85
X180.5Y-59.85
X180.5Y-60.85
X180.75Y-49.6
X180.85Y-106.15
X180.9Y-47.4
X180.9Y-48.55
X181.25Y-48.0
X181.25Y-49.95
X181.3Y-49.4
X181.37Y-64.8
X181.41Y-69.01
X181.65Y-48.65
X181.686Y-63.607
X181.686Y-65.535
X181.75Y-47.45
X181.85Y-135.35
X182.05Y-55.7
X182.1Y-48.0
X182.45Y-48.65
X182.7Y-55.75
X182.75Y-120.15
X182.85Y-96.2
X182.9Y-47.5
X182.9Y-56.35
X183.15Y-48.2
X183.236Y-51.562
X183.6Y-100.078
X183.642Y-47.396
X183.8Y-48.75
X183.9Y-48.0
X183.9Y-58.85
X184.048Y-54.051
X184.05Y-115.0
X184.4Y-47.45
X184.4Y-49.15
X184.55Y-48.45
X184.55Y-50.0
X184.6Y-105.8
X185.05Y-49.4
X185.1Y-47.85
X185.5Y-60.6
X185.55Y-48.35
X185.6Y-56.45
X185.7Y-49.0
X185.7Y-62.9
X185.8Y-110.55
X185.9Y-47.5
X186.2Y-48.25
X186.3Y-102.0
X186.385Y-53.848
X186.55Y-72.7
X186.65Y-47.35
X186.7Y-78.1
X186.85Y-48.0
X186.85Y-51.45
X187.25Y-96.0
X187.4Y-47.4
X187.5Y-51.8
X188.15Y-47.35
X188.35Y-51.4
X188.4Y-52.3
X188.45Y-53.1
X189.05Y-51.35
X189.2Y-52.2
X189.3Y-52.95
X189.5Y-48.05
X189.81Y-54.23
X189.95Y-51.75
X190.0Y-52.55
X190.043Y-47.346
X190.1Y-48.65
X190.25Y-47.95
X190.45Y-53.05
X190.6Y-49.7
X190.75Y-48.95
X190.75Y-51.7
X190.9Y-56.55
X190.95Y-52.5
X191.0Y-64.5
X191.0Y-66.5
X191.0Y-68.5
X191.05Y-48.3
X191.05Y-60.4
X191.05Y-84.45
X191.05Y-86.45
X191.05Y-88.45
X191.05Y-90.45
X191.05Y-92.45
X191.05Y-94.45
X191.05Y-97.1
X191.05Y-99.1
X191.05Y-101.1
X191.05Y-103.1
X191.05Y-105.1
X191.05Y-107.1
X191.05Y-109.1
X191.1Y-54.25
X191.15Y-111.05
X191.15Y-113.05
X191.15Y-115.05
X191.15Y-117.05
X191.15Y-119.05
X191.15Y-121.05
X191.15Y-123.05
X191.15Y-125.05
X191.2Y-127.0
X191.45Y-49.5
X191.55Y-52.1
X191.6Y-51.35
X191.6Y-52.95
X191.75Y-48.0
X191.75Y-48.8
X191.75Y-50.5
T3
X191.2Y-47.175
T5
X92.52Y-84.775
X92.565Y-89.275
X98.87Y-84.775
X98.895Y-89.2
X116.484Y-116.246
X116.484Y-127.965
X119.024Y-116.246
X119.024Y-127.965
X121.564Y-116.246
X121.564Y-127.965
X124.104Y-116.246
X124.104Y-127.965
X126.644Y-116.246
X126.644Y-127.965
X129.184Y-116.246
X129.184Y-127.965
X131.724Y-116.246
X131.724Y-127.965
X134.264Y-116.246
X134.264Y-127.965
X136.804Y-116.246
X136.804Y-127.965
X139.344Y-116.246
X139.344Y-127.965
X141.884Y-116.246
X141.884Y-127.965
X144.424Y-116.246
X144.424Y-127.965
X146.964Y-116.246
X146.964Y-127.965
X149.504Y-116.246
X149.504Y-127.965
X169.345Y-108.375
X169.39Y-112.875
X175.695Y-108.375
X175.72Y-112.8
T6
X87.02Y-92.5
X87.02Y-95.0
X87.02Y-97.5
X93.25Y-103.73
X95.75Y-103.73
X98.25Y-103.73
X163.845Y-116.1
X163.845Y-118.6
X163.845Y-121.1
X170.075Y-127.33
X172.575Y-127.33
X175.075Y-127.33
X189.6Y-71.62
X189.6Y-74.16
X189.6Y-76.7
X189.6Y-79.24
X189.6Y-81.78
T7
X96.571Y-71.831
X100.965Y-71.831
X105.359Y-71.882
X113.596Y-133.045
X118.549Y-133.045
X123.502Y-133.045
X128.455Y-133.045
X133.408Y-133.045
X138.361Y-133.045
X143.314Y-133.045
X148.267Y-132.994
X153.22Y-132.994
X154.33Y-116.297
X157.836Y-116.297
X167.183Y-71.73
X176.276Y-73.558
T8
X159.469Y-87.728
X159.469Y-92.228
X165.969Y-87.728
X165.969Y-92.228
X170.369Y-76.828
X170.369Y-83.328
X170.369Y-96.828
X170.369Y-103.328
X174.869Y-76.828
X174.869Y-83.328
X174.869Y-96.828
X174.869Y-103.328
X179.469Y-87.728
X179.469Y-92.228
X185.969Y-87.728
X185.969Y-92.228
T9
X89.425Y-90.0
X89.425Y-100.0
X102.075Y-90.0
X102.075Y-100.0
X166.25Y-113.6
X166.25Y-123.6
X178.9Y-113.6
X178.9Y-123.6
T10
X82.978Y-46.808
X83.3Y-131.65
X180.64Y-76.82
X187.43Y-131.855
T4
G00X138.12Y-45.62
M15
G01X138.12Y-44.82
M16
G05
G00X138.12Y-49.95
M15
G01X138.12Y-48.85
M16
G05
G00X146.76Y-45.62
M15
G01X146.76Y-44.82
M16
G05
G00X146.76Y-49.95
M15
G01X146.76Y-48.85
M16
G05
M30
