G04 #@! TF.GenerationSoftware,KiCad,Pcbnew,9.0.2*
G04 #@! TF.CreationDate,2025-08-27T11:59:39-05:00*
G04 #@! TF.ProjectId,controller,636f6e74-726f-46c6-9c65-722e6b696361,rev?*
G04 #@! TF.SameCoordinates,Original*
G04 #@! TF.FileFunction,Soldermask,Top*
G04 #@! TF.FilePolarity,Negative*
%FSLAX46Y46*%
G04 Gerber Fmt 4.6, Leading zero omitted, Abs format (unit mm)*
G04 Created by KiCad (PCBNEW 9.0.2) date 2025-08-27 11:59:39*
%MOMM*%
%LPD*%
G01*
G04 APERTURE LIST*
G04 Aperture macros list*
%AMRoundRect*
0 Rectangle with rounded corners*
0 $1 Rounding radius*
0 $2 $3 $4 $5 $6 $7 $8 $9 X,Y pos of 4 corners*
0 Add a 4 corners polygon primitive as box body*
4,1,4,$2,$3,$4,$5,$6,$7,$8,$9,$2,$3,0*
0 Add four circle primitives for the rounded corners*
1,1,$1+$1,$2,$3*
1,1,$1+$1,$4,$5*
1,1,$1+$1,$6,$7*
1,1,$1+$1,$8,$9*
0 Add four rect primitives between the rounded corners*
20,1,$1+$1,$2,$3,$4,$5,0*
20,1,$1+$1,$4,$5,$6,$7,0*
20,1,$1+$1,$6,$7,$8,$9,0*
20,1,$1+$1,$8,$9,$2,$3,0*%
%AMRotRect*
0 Rectangle, with rotation*
0 The origin of the aperture is its center*
0 $1 length*
0 $2 width*
0 $3 Rotation angle, in degrees counterclockwise*
0 Add horizontal line*
21,1,$1,$2,0,0,$3*%
G04 Aperture macros list end*
%ADD10R,0.940000X0.540000*%
%ADD11RotRect,0.700000X0.700000X45.000000*%
%ADD12R,0.700000X0.700000*%
%ADD13R,1.400000X1.000000*%
%ADD14RoundRect,0.150000X-0.150000X0.587500X-0.150000X-0.587500X0.150000X-0.587500X0.150000X0.587500X0*%
%ADD15R,1.000000X1.000000*%
%ADD16R,1.000000X1.400000*%
%ADD17C,0.300000*%
%ADD18C,2.000000*%
%ADD19RotRect,1.000000X1.400000X315.000000*%
%ADD20R,1.220000X1.150000*%
%ADD21R,0.450000X0.800000*%
%ADD22C,1.600000*%
%ADD23R,2.700000X0.800000*%
%ADD24R,0.950000X0.900000*%
%ADD25RotRect,1.000000X1.400000X225.000000*%
%ADD26R,0.850000X0.500000*%
%ADD27R,0.700000X0.425000*%
%ADD28RotRect,0.800000X0.800000X315.000000*%
%ADD29R,1.200000X0.950000*%
%ADD30R,0.960000X1.390000*%
%ADD31R,0.750000X0.600000*%
%ADD32R,1.150000X1.220000*%
%ADD33RoundRect,0.225000X-0.335876X-0.017678X-0.017678X-0.335876X0.335876X0.017678X0.017678X0.335876X0*%
%ADD34C,7.000000*%
%ADD35R,1.390000X0.960000*%
%ADD36O,1.500000X3.000000*%
%ADD37C,0.650000*%
%ADD38RoundRect,0.150000X0.150000X0.425000X-0.150000X0.425000X-0.150000X-0.425000X0.150000X-0.425000X0*%
%ADD39RoundRect,0.075000X0.075000X0.500000X-0.075000X0.500000X-0.075000X-0.500000X0.075000X-0.500000X0*%
%ADD40O,1.000000X2.100000*%
%ADD41O,1.000000X1.800000*%
%ADD42R,0.950000X0.450000*%
%ADD43R,3.450000X4.350000*%
%ADD44C,2.200000*%
%ADD45RotRect,0.540000X0.940000X135.000000*%
%ADD46C,2.250000*%
%ADD47C,1.500000*%
%ADD48R,1.500000X1.500000*%
%ADD49RoundRect,0.050000X-0.050000X0.387500X-0.050000X-0.387500X0.050000X-0.387500X0.050000X0.387500X0*%
%ADD50RoundRect,0.050000X-0.387500X0.050000X-0.387500X-0.050000X0.387500X-0.050000X0.387500X0.050000X0*%
%ADD51R,5.600000X5.600000*%
%ADD52RotRect,0.625000X1.000000X315.000000*%
%ADD53R,1.000000X0.850000*%
%ADD54R,0.650000X1.500000*%
%ADD55R,0.450000X0.950000*%
%ADD56RotRect,0.960000X1.390000X135.000000*%
%ADD57R,1.000000X3.500000*%
%ADD58R,1.500000X3.400000*%
%ADD59R,0.914400X1.447800*%
%ADD60R,1.700000X1.700000*%
%ADD61C,1.700000*%
%ADD62R,1.150000X1.050000*%
%ADD63R,0.450000X1.475000*%
%ADD64RotRect,0.700000X0.700000X135.000000*%
%ADD65RoundRect,0.200000X-0.275000X0.200000X-0.275000X-0.200000X0.275000X-0.200000X0.275000X0.200000X0*%
%ADD66R,1.000000X0.950000*%
%ADD67R,0.425000X0.700000*%
%ADD68R,0.600000X0.240000*%
%ADD69R,1.650000X2.400000*%
%ADD70R,0.250000X0.500000*%
%ADD71RotRect,1.000000X1.400000X135.000000*%
%ADD72RotRect,1.000000X1.400000X45.000000*%
G04 APERTURE END LIST*
D10*
X141549600Y-57645200D03*
X141549600Y-56045200D03*
X142849600Y-57645200D03*
X142849600Y-56045200D03*
D11*
X182100000Y-50789950D03*
X183089950Y-49800000D03*
D12*
X133959600Y-62484000D03*
X132559600Y-62484000D03*
D13*
X133540000Y-71730000D03*
X133540000Y-73630000D03*
D14*
X118400000Y-55150000D03*
X116500000Y-55150000D03*
X117450000Y-57025000D03*
D15*
X160375600Y-126492000D03*
D14*
X118400000Y-51162500D03*
X116500000Y-51162500D03*
X117450000Y-53037500D03*
D16*
X121200000Y-59750000D03*
X123100000Y-59750000D03*
D17*
X145350000Y-60450000D03*
X144150000Y-60450000D03*
D18*
X179469061Y-87728249D03*
X185969061Y-87728249D03*
X179469061Y-92228249D03*
X185969061Y-92228249D03*
D15*
X87884000Y-51866800D03*
D19*
X170138122Y-87488122D03*
X171481624Y-88831624D03*
D20*
X150977600Y-53060000D03*
X150977600Y-56160000D03*
D21*
X105022119Y-51106819D03*
X104222119Y-51106819D03*
X103422119Y-51106819D03*
X102622119Y-51106819D03*
X102622119Y-52706819D03*
X103422119Y-52706819D03*
X104222119Y-52706819D03*
X105022119Y-52706819D03*
D22*
X100965000Y-71831200D03*
D12*
X144300000Y-65050000D03*
X145700000Y-65050000D03*
D20*
X150977600Y-51130800D03*
X150977600Y-48030800D03*
D23*
X137850000Y-61650000D03*
X137850000Y-59450000D03*
D24*
X147600000Y-60900000D03*
X147600000Y-62500000D03*
D25*
X175300000Y-87488122D03*
X173956498Y-88831624D03*
D26*
X95505452Y-46006819D03*
X97255452Y-46006819D03*
X95505452Y-45006819D03*
X97255452Y-45006819D03*
D18*
X170369061Y-103328249D03*
X170369061Y-96828249D03*
X174869061Y-103328249D03*
X174869061Y-96828249D03*
D15*
X160629600Y-122680000D03*
D27*
X107900000Y-51750000D03*
X107900000Y-52550000D03*
X107900000Y-53350000D03*
X107900000Y-54150000D03*
X109400000Y-54150000D03*
X109400000Y-53350000D03*
X109400000Y-52550000D03*
X109400000Y-51750000D03*
D28*
X186786917Y-49359099D03*
X186009099Y-50136917D03*
D29*
X112000000Y-57300000D03*
X114100000Y-57300000D03*
D30*
X170590000Y-63700000D03*
X168970000Y-63700000D03*
D18*
X170369061Y-83328249D03*
X170369061Y-76828249D03*
X174869061Y-83328249D03*
X174869061Y-76828249D03*
D31*
X153221600Y-52679600D03*
X154321600Y-52679600D03*
D32*
X127300000Y-57075000D03*
X124200000Y-57075000D03*
D22*
X148267230Y-132994400D03*
D33*
X188051992Y-48601992D03*
X189148008Y-49698008D03*
D15*
X82702400Y-96568800D03*
D16*
X119650000Y-59750000D03*
X117750000Y-59750000D03*
D26*
X100438786Y-46006819D03*
X102188786Y-46006819D03*
X100438786Y-45006819D03*
X102188786Y-45006819D03*
D29*
X112000000Y-48350000D03*
X114100000Y-48350000D03*
D34*
X180640000Y-76820000D03*
D35*
X108102880Y-61704819D03*
X108102880Y-60084819D03*
D33*
X184951992Y-51131992D03*
X186048008Y-52228008D03*
D36*
X116484400Y-116246400D03*
X119024400Y-116246400D03*
X121564400Y-116246400D03*
X124104400Y-116246400D03*
X126644400Y-116246400D03*
X129184400Y-116246400D03*
X131724400Y-116246400D03*
X134264400Y-116246400D03*
X136804400Y-116246400D03*
X139344400Y-116246400D03*
X141884400Y-116246400D03*
X144424400Y-116246400D03*
X146964400Y-116246400D03*
X149504400Y-116246400D03*
D12*
X185800000Y-66300000D03*
X185800000Y-67700000D03*
D30*
X129090000Y-56525000D03*
X130710000Y-56525000D03*
D37*
X145330000Y-48900000D03*
X139550000Y-48900000D03*
D38*
X145640000Y-49975000D03*
X144840000Y-49975000D03*
D39*
X143690000Y-49975000D03*
X142690000Y-49975000D03*
X142190000Y-49975000D03*
X141190000Y-49975000D03*
D38*
X140040000Y-49975000D03*
X139240000Y-49975000D03*
X139240000Y-49975000D03*
X140040000Y-49975000D03*
D39*
X140690000Y-49975000D03*
X141690000Y-49975000D03*
X143190000Y-49975000D03*
X144190000Y-49975000D03*
D38*
X144840000Y-49975000D03*
X145640000Y-49975000D03*
D40*
X146760000Y-49400000D03*
D41*
X146760000Y-45220000D03*
D40*
X138120000Y-49400000D03*
D41*
X138120000Y-45220000D03*
D42*
X174800000Y-66000000D03*
X174800000Y-67270000D03*
X174800000Y-68540000D03*
X174800000Y-69810000D03*
X182600000Y-69810000D03*
X182600000Y-68540000D03*
X182600000Y-67270000D03*
X182600000Y-66000000D03*
D43*
X178700000Y-67905000D03*
D44*
X125780800Y-74422000D03*
D45*
X180415685Y-50665685D03*
X179284315Y-49534315D03*
D22*
X176875000Y-118600000D03*
X168275000Y-118600000D03*
D46*
X166250000Y-123600000D03*
X178900000Y-123600000D03*
X178900000Y-113600000D03*
X166250000Y-113600000D03*
D47*
X175720000Y-112800000D03*
X175695000Y-108375000D03*
X169390000Y-112875000D03*
X169345000Y-108375000D03*
D48*
X163845000Y-116100000D03*
D47*
X163845000Y-118600000D03*
X163845000Y-121100000D03*
X170075000Y-127330000D03*
X172575000Y-127330000D03*
X175075000Y-127330000D03*
D35*
X184200000Y-66395000D03*
X184200000Y-68015000D03*
D22*
X128455230Y-133045200D03*
D26*
X105372119Y-46006819D03*
X107122119Y-46006819D03*
X105372119Y-45006819D03*
X107122119Y-45006819D03*
D49*
X181062500Y-55412500D03*
X180662500Y-55412500D03*
X180262500Y-55412500D03*
X179862500Y-55412500D03*
X179462500Y-55412500D03*
X179062500Y-55412500D03*
X178662500Y-55412500D03*
X178262500Y-55412500D03*
X177862500Y-55412500D03*
X177462500Y-55412500D03*
X177062500Y-55412500D03*
X176662500Y-55412500D03*
X176262500Y-55412500D03*
X175862500Y-55412500D03*
D50*
X175025000Y-56250000D03*
X175025000Y-56650000D03*
X175025000Y-57050000D03*
X175025000Y-57450000D03*
X175025000Y-57850000D03*
X175025000Y-58250000D03*
X175025000Y-58650000D03*
X175025000Y-59050000D03*
X175025000Y-59450000D03*
X175025000Y-59850000D03*
X175025000Y-60250000D03*
X175025000Y-60650000D03*
X175025000Y-61050000D03*
X175025000Y-61450000D03*
D49*
X175862500Y-62287500D03*
X176262500Y-62287500D03*
X176662500Y-62287500D03*
X177062500Y-62287500D03*
X177462500Y-62287500D03*
X177862500Y-62287500D03*
X178262500Y-62287500D03*
X178662500Y-62287500D03*
X179062500Y-62287500D03*
X179462500Y-62287500D03*
X179862500Y-62287500D03*
X180262500Y-62287500D03*
X180662500Y-62287500D03*
X181062500Y-62287500D03*
D50*
X181900000Y-61450000D03*
X181900000Y-61050000D03*
X181900000Y-60650000D03*
X181900000Y-60250000D03*
X181900000Y-59850000D03*
X181900000Y-59450000D03*
X181900000Y-59050000D03*
X181900000Y-58650000D03*
X181900000Y-58250000D03*
X181900000Y-57850000D03*
X181900000Y-57450000D03*
X181900000Y-57050000D03*
X181900000Y-56650000D03*
X181900000Y-56250000D03*
D51*
X178462500Y-58850000D03*
D13*
X100700000Y-65200000D03*
X100700000Y-63300000D03*
D22*
X105359200Y-71882000D03*
D52*
X180994194Y-51394194D03*
X181895756Y-52295756D03*
D15*
X139039600Y-53035200D03*
D22*
X100050000Y-95000000D03*
X91450000Y-95000000D03*
D46*
X89425000Y-100000000D03*
X102075000Y-100000000D03*
X102075000Y-90000000D03*
X89425000Y-90000000D03*
D47*
X98895000Y-89200000D03*
X98870000Y-84775000D03*
X92565000Y-89275000D03*
X92520000Y-84775000D03*
D48*
X87020000Y-92500000D03*
D47*
X87020000Y-95000000D03*
X87020000Y-97500000D03*
X93250000Y-103730000D03*
X95750000Y-103730000D03*
X98250000Y-103730000D03*
D53*
X134730351Y-45809600D03*
X134730351Y-44309600D03*
D16*
X160725000Y-53525000D03*
X158825000Y-53525000D03*
D34*
X83300000Y-131650000D03*
D12*
X170680000Y-62050000D03*
X169280000Y-62050000D03*
D54*
X169395000Y-71505000D03*
X170665000Y-71505000D03*
X171935000Y-71505000D03*
X173205000Y-71505000D03*
X173205000Y-66105000D03*
X171935000Y-66105000D03*
X170665000Y-66105000D03*
X169395000Y-66105000D03*
D55*
X135000000Y-58225000D03*
X134350000Y-58225000D03*
X133700000Y-58225000D03*
X133700000Y-60425000D03*
X134350000Y-60425000D03*
X135000000Y-60425000D03*
D29*
X112000000Y-52850000D03*
X114100000Y-52850000D03*
D22*
X123502230Y-133045200D03*
X167182800Y-71729600D03*
D15*
X149555200Y-58166000D03*
D22*
X154330400Y-116297200D03*
X157835600Y-116297200D03*
D56*
X178883416Y-51317731D03*
X177737904Y-50172219D03*
D15*
X82702400Y-99618800D03*
D57*
X128300000Y-51896000D03*
X126300000Y-51896000D03*
D58*
X130650000Y-46346000D03*
X123950000Y-46346000D03*
D21*
X95072119Y-51106819D03*
X94272119Y-51106819D03*
X93472119Y-51106819D03*
X92672119Y-51106819D03*
X92672119Y-52706819D03*
X93472119Y-52706819D03*
X94272119Y-52706819D03*
X95072119Y-52706819D03*
D59*
X187017200Y-61720000D03*
X188642800Y-61720000D03*
D22*
X176276000Y-73558400D03*
D12*
X185700000Y-61700000D03*
X184300000Y-61700000D03*
D60*
X189600000Y-71620000D03*
D61*
X189600000Y-74160000D03*
X189600000Y-76700000D03*
X189600000Y-79240000D03*
X189600000Y-81780000D03*
D13*
X133520000Y-68870000D03*
X133520000Y-66970000D03*
D62*
X160925000Y-50775000D03*
X160925000Y-49325000D03*
X157575000Y-50775000D03*
X157575000Y-49325000D03*
D22*
X143314230Y-133045200D03*
D63*
X104652880Y-55618819D03*
X104002880Y-55618819D03*
X103352880Y-55618819D03*
X102702880Y-55618819D03*
X102052880Y-55618819D03*
X101402880Y-55618819D03*
X100752880Y-55618819D03*
X100102880Y-55618819D03*
X99452880Y-55618819D03*
X98802880Y-55618819D03*
X98152880Y-55618819D03*
X97502880Y-55618819D03*
X96852880Y-55618819D03*
X96202880Y-55618819D03*
X96202880Y-61494819D03*
X96852880Y-61494819D03*
X97502880Y-61494819D03*
X98152880Y-61494819D03*
X98802880Y-61494819D03*
X99452880Y-61494819D03*
X100102880Y-61494819D03*
X100752880Y-61494819D03*
X101402880Y-61494819D03*
X102052880Y-61494819D03*
X102702880Y-61494819D03*
X103352880Y-61494819D03*
X104002880Y-61494819D03*
X104652880Y-61494819D03*
D22*
X153220230Y-132994400D03*
D64*
X180733375Y-53326975D03*
X179743425Y-52337025D03*
D24*
X140600000Y-63550000D03*
X140600000Y-65150000D03*
D16*
X166275000Y-53525000D03*
X164375000Y-53525000D03*
D15*
X138836400Y-63449200D03*
D10*
X140550000Y-62350000D03*
X140550000Y-60750000D03*
D22*
X113596230Y-133045200D03*
D32*
X137000000Y-53441600D03*
X133900000Y-53441600D03*
D36*
X116484400Y-127965200D03*
X119024400Y-127965200D03*
X121564400Y-127965200D03*
X124104400Y-127965200D03*
X126644400Y-127965200D03*
X129184400Y-127965200D03*
X131724400Y-127965200D03*
X134264400Y-127965200D03*
X136804400Y-127965200D03*
X139344400Y-127965200D03*
X141884400Y-127965200D03*
X144424400Y-127965200D03*
X146964400Y-127965200D03*
X149504400Y-127965200D03*
D62*
X167500000Y-50750000D03*
X167500000Y-49300000D03*
X164150000Y-50750000D03*
X164150000Y-49300000D03*
D12*
X106414880Y-61719819D03*
X106414880Y-60319819D03*
D26*
X90572119Y-46006819D03*
X92322119Y-46006819D03*
X90572119Y-45006819D03*
X92322119Y-45006819D03*
D65*
X147750000Y-57875000D03*
X147750000Y-59525000D03*
D34*
X82978000Y-46808400D03*
D66*
X187465000Y-57715000D03*
X185615000Y-57715000D03*
X185615000Y-59265000D03*
X187465000Y-59265000D03*
D53*
X134730351Y-47205200D03*
X134730351Y-48705200D03*
D67*
X100047119Y-51156819D03*
X99247119Y-51156819D03*
X98447119Y-51156819D03*
X97647119Y-51156819D03*
X97647119Y-52656819D03*
X98447119Y-52656819D03*
X99247119Y-52656819D03*
X100047119Y-52656819D03*
D31*
X153221600Y-51529600D03*
X154321600Y-51529600D03*
D22*
X133408230Y-133045200D03*
D55*
X131350000Y-58175000D03*
X130700000Y-58175000D03*
X130050000Y-58175000D03*
X130050000Y-60375000D03*
X130700000Y-60375000D03*
X131350000Y-60375000D03*
D22*
X118549230Y-133045200D03*
X138361230Y-133045200D03*
D15*
X136750000Y-56489600D03*
D34*
X187430400Y-131855200D03*
D68*
X142650000Y-59950000D03*
X142650000Y-60450000D03*
X142650000Y-60950000D03*
X142650000Y-61450000D03*
X142650000Y-61950000D03*
X145450000Y-61950000D03*
X145450000Y-61450000D03*
X145450000Y-60950000D03*
X145450000Y-60450000D03*
X145450000Y-59950000D03*
D69*
X144050000Y-60950000D03*
D70*
X143800000Y-62400000D03*
X144300000Y-62400000D03*
X143800000Y-59500000D03*
X144300000Y-59500000D03*
D22*
X96570800Y-71831200D03*
D71*
X175300000Y-92650000D03*
X173956498Y-91306498D03*
D59*
X186777200Y-55300000D03*
X188402800Y-55300000D03*
D18*
X159469061Y-87728249D03*
X165969061Y-87728249D03*
X159469061Y-92228249D03*
X165969061Y-92228249D03*
D72*
X170138122Y-92650000D03*
X171481624Y-91306498D03*
D30*
X134880000Y-56575000D03*
X133260000Y-56575000D03*
M02*
