G04 #@! TF.GenerationSoftware,KiCad,Pcbnew,9.0.2*
G04 #@! TF.CreationDate,2025-07-06T22:42:39-05:00*
G04 #@! TF.ProjectId,controller,636f6e74-726f-46c6-9c65-722e6b696361,rev?*
G04 #@! TF.SameCoordinates,Original*
G04 #@! TF.FileFunction,Soldermask,Bot*
G04 #@! TF.FilePolarity,Negative*
%FSLAX46Y46*%
G04 Gerber Fmt 4.6, Leading zero omitted, Abs format (unit mm)*
G04 Created by KiCad (PCBNEW 9.0.2) date 2025-07-06 22:42:39*
%MOMM*%
%LPD*%
G01*
G04 APERTURE LIST*
%ADD10O,1.500000X3.000000*%
%ADD11C,2.000000*%
%ADD12C,7.000000*%
%ADD13C,0.650000*%
%ADD14O,1.000000X2.100000*%
%ADD15O,1.000000X1.800000*%
%ADD16C,1.600000*%
%ADD17C,2.250000*%
%ADD18C,1.500000*%
%ADD19R,1.500000X1.500000*%
%ADD20R,1.700000X1.700000*%
%ADD21C,1.700000*%
G04 APERTURE END LIST*
D10*
X120350000Y-130850000D03*
X122890000Y-130850000D03*
X125430000Y-130850000D03*
X127970000Y-130850000D03*
X130510000Y-130850000D03*
X133050000Y-130850000D03*
X135590000Y-130850000D03*
X138130000Y-130850000D03*
X140670000Y-130850000D03*
X143210000Y-130850000D03*
X145750000Y-130850000D03*
X148290000Y-130850000D03*
X150830000Y-130850000D03*
X153370000Y-130850000D03*
D11*
X100600000Y-76450000D03*
X107100000Y-76450000D03*
X100600000Y-80950000D03*
X107100000Y-80950000D03*
X91500000Y-92050000D03*
X91500000Y-85550000D03*
X96000000Y-92050000D03*
X96000000Y-85550000D03*
X91500000Y-72050000D03*
X91500000Y-65550000D03*
X96000000Y-72050000D03*
X96000000Y-65550000D03*
D12*
X159900000Y-46750000D03*
D13*
X148290000Y-47765000D03*
X142510000Y-47765000D03*
D14*
X149720000Y-48265000D03*
D15*
X149720000Y-44085000D03*
D14*
X141080000Y-48265000D03*
D15*
X141080000Y-44085000D03*
D16*
X186600000Y-110000000D03*
X178000000Y-110000000D03*
D17*
X175975000Y-115000000D03*
X188625000Y-115000000D03*
X188625000Y-105000000D03*
X175975000Y-105000000D03*
D18*
X185445000Y-104200000D03*
X185420000Y-99775000D03*
X179115000Y-104275000D03*
X179070000Y-99775000D03*
D19*
X173570000Y-107500000D03*
D18*
X173570000Y-110000000D03*
X173570000Y-112500000D03*
X179800000Y-118730000D03*
X182300000Y-118730000D03*
X184800000Y-118730000D03*
D16*
X97780000Y-110000000D03*
X89180000Y-110000000D03*
D17*
X87155000Y-115000000D03*
X99805000Y-115000000D03*
X99805000Y-105000000D03*
X87155000Y-105000000D03*
D18*
X96625000Y-104200000D03*
X96600000Y-99775000D03*
X90295000Y-104275000D03*
X90250000Y-99775000D03*
D19*
X84750000Y-107500000D03*
D18*
X84750000Y-110000000D03*
X84750000Y-112500000D03*
X90980000Y-118730000D03*
X93480000Y-118730000D03*
X95980000Y-118730000D03*
D12*
X78500000Y-131300000D03*
D20*
X197600000Y-68560000D03*
D21*
X197600000Y-71100000D03*
X197600000Y-73640000D03*
X197600000Y-76180000D03*
X197600000Y-78720000D03*
D12*
X77150000Y-46950000D03*
X196050000Y-130500000D03*
D11*
X80600000Y-76450000D03*
X87100000Y-76450000D03*
X80600000Y-80950000D03*
X87100000Y-80950000D03*
M02*
