G04 #@! TF.GenerationSoftware,KiCad,Pcbnew,9.0.2*
G04 #@! TF.CreationDate,2025-08-27T11:59:39-05:00*
G04 #@! TF.ProjectId,controller,636f6e74-726f-46c6-9c65-722e6b696361,rev?*
G04 #@! TF.SameCoordinates,Original*
G04 #@! TF.FileFunction,Soldermask,Bot*
G04 #@! TF.FilePolarity,Negative*
%FSLAX46Y46*%
G04 Gerber Fmt 4.6, Leading zero omitted, Abs format (unit mm)*
G04 Created by KiCad (PCBNEW 9.0.2) date 2025-08-27 11:59:39*
%MOMM*%
%LPD*%
G01*
G04 APERTURE LIST*
%ADD10C,2.000000*%
%ADD11C,1.600000*%
%ADD12C,7.000000*%
%ADD13O,1.500000X3.000000*%
%ADD14C,0.650000*%
%ADD15O,1.000000X2.100000*%
%ADD16O,1.000000X1.800000*%
%ADD17C,2.200000*%
%ADD18C,2.250000*%
%ADD19C,1.500000*%
%ADD20R,1.500000X1.500000*%
%ADD21R,1.700000X1.700000*%
%ADD22C,1.700000*%
G04 APERTURE END LIST*
D10*
X179469061Y-87728249D03*
X185969061Y-87728249D03*
X179469061Y-92228249D03*
X185969061Y-92228249D03*
D11*
X100965000Y-71831200D03*
D10*
X170369061Y-103328249D03*
X170369061Y-96828249D03*
X174869061Y-103328249D03*
X174869061Y-96828249D03*
X170369061Y-83328249D03*
X170369061Y-76828249D03*
X174869061Y-83328249D03*
X174869061Y-76828249D03*
D11*
X148267230Y-132994400D03*
D12*
X180640000Y-76820000D03*
D13*
X116484400Y-116246400D03*
X119024400Y-116246400D03*
X121564400Y-116246400D03*
X124104400Y-116246400D03*
X126644400Y-116246400D03*
X129184400Y-116246400D03*
X131724400Y-116246400D03*
X134264400Y-116246400D03*
X136804400Y-116246400D03*
X139344400Y-116246400D03*
X141884400Y-116246400D03*
X144424400Y-116246400D03*
X146964400Y-116246400D03*
X149504400Y-116246400D03*
D14*
X145330000Y-48900000D03*
X139550000Y-48900000D03*
D15*
X146760000Y-49400000D03*
D16*
X146760000Y-45220000D03*
D15*
X138120000Y-49400000D03*
D16*
X138120000Y-45220000D03*
D17*
X125780800Y-74422000D03*
D11*
X176875000Y-118600000D03*
X168275000Y-118600000D03*
D18*
X166250000Y-123600000D03*
X178900000Y-123600000D03*
X178900000Y-113600000D03*
X166250000Y-113600000D03*
D19*
X175720000Y-112800000D03*
X175695000Y-108375000D03*
X169390000Y-112875000D03*
X169345000Y-108375000D03*
D20*
X163845000Y-116100000D03*
D19*
X163845000Y-118600000D03*
X163845000Y-121100000D03*
X170075000Y-127330000D03*
X172575000Y-127330000D03*
X175075000Y-127330000D03*
D11*
X128455230Y-133045200D03*
X105359200Y-71882000D03*
X100050000Y-95000000D03*
X91450000Y-95000000D03*
D18*
X89425000Y-100000000D03*
X102075000Y-100000000D03*
X102075000Y-90000000D03*
X89425000Y-90000000D03*
D19*
X98895000Y-89200000D03*
X98870000Y-84775000D03*
X92565000Y-89275000D03*
X92520000Y-84775000D03*
D20*
X87020000Y-92500000D03*
D19*
X87020000Y-95000000D03*
X87020000Y-97500000D03*
X93250000Y-103730000D03*
X95750000Y-103730000D03*
X98250000Y-103730000D03*
D12*
X83300000Y-131650000D03*
D11*
X123502230Y-133045200D03*
X167182800Y-71729600D03*
X154330400Y-116297200D03*
X157835600Y-116297200D03*
X176276000Y-73558400D03*
D21*
X189600000Y-71620000D03*
D22*
X189600000Y-74160000D03*
X189600000Y-76700000D03*
X189600000Y-79240000D03*
X189600000Y-81780000D03*
D11*
X143314230Y-133045200D03*
X153220230Y-132994400D03*
X113596230Y-133045200D03*
D13*
X116484400Y-127965200D03*
X119024400Y-127965200D03*
X121564400Y-127965200D03*
X124104400Y-127965200D03*
X126644400Y-127965200D03*
X129184400Y-127965200D03*
X131724400Y-127965200D03*
X134264400Y-127965200D03*
X136804400Y-127965200D03*
X139344400Y-127965200D03*
X141884400Y-127965200D03*
X144424400Y-127965200D03*
X146964400Y-127965200D03*
X149504400Y-127965200D03*
D12*
X82978000Y-46808400D03*
D11*
X133408230Y-133045200D03*
X118549230Y-133045200D03*
X138361230Y-133045200D03*
D12*
X187430400Y-131855200D03*
D11*
X96570800Y-71831200D03*
D10*
X159469061Y-87728249D03*
X165969061Y-87728249D03*
X159469061Y-92228249D03*
X165969061Y-92228249D03*
M02*
