M48
; DRILL file {KiCad 9.0.2} date 2025-07-06T22:42:41-0500
; FORMAT={-:-/ absolute / metric / decimal}
; #@! TF.CreationDate,2025-07-06T22:42:41-05:00
; #@! TF.GenerationSoftware,Kicad,Pcbnew,9.0.2
; #@! TF.FileFunction,Plated,1,4,PTH
FMAT,2
METRIC
; #@! TA.AperFunction,Plated,PTH,ViaDrill
T1C0.300
; #@! TA.AperFunction,Plated,PTH,ComponentDrill
T2C0.300
; #@! TA.AperFunction,Plated,PTH,ComponentDrill
T3C0.600
; #@! TA.AperFunction,Plated,PTH,ComponentDrill
T4C0.800
; #@! TA.AperFunction,Plated,PTH,ComponentDrill
T5C1.000
; #@! TA.AperFunction,Plated,PTH,ComponentDrill
T6C1.100
; #@! TA.AperFunction,Plated,PTH,ComponentDrill
T7C1.500
; #@! TA.AperFunction,Plated,PTH,ComponentDrill
T8C4.300
%
G90
G05
T1
X134.4Y-55.7
X134.4Y-56.35
X146.5Y-58.6
X147.2Y-58.6
T2
X195.8Y-47.3
T4
X90.25Y-99.775
X90.295Y-104.275
X96.6Y-99.775
X96.625Y-104.2
X120.35Y-130.85
X122.89Y-130.85
X125.43Y-130.85
X127.97Y-130.85
X130.51Y-130.85
X133.05Y-130.85
X135.59Y-130.85
X138.13Y-130.85
X140.67Y-130.85
X143.21Y-130.85
X145.75Y-130.85
X148.29Y-130.85
X150.83Y-130.85
X153.37Y-130.85
X179.07Y-99.775
X179.115Y-104.275
X185.42Y-99.775
X185.445Y-104.2
T5
X84.75Y-107.5
X84.75Y-110.0
X84.75Y-112.5
X90.98Y-118.73
X93.48Y-118.73
X95.98Y-118.73
X173.57Y-107.5
X173.57Y-110.0
X173.57Y-112.5
X179.8Y-118.73
X182.3Y-118.73
X184.8Y-118.73
X197.6Y-68.56
X197.6Y-71.1
X197.6Y-73.64
X197.6Y-76.18
X197.6Y-78.72
T6
X80.6Y-76.45
X80.6Y-80.95
X87.1Y-76.45
X87.1Y-80.95
X91.5Y-65.55
X91.5Y-72.05
X91.5Y-85.55
X91.5Y-92.05
X96.0Y-65.55
X96.0Y-72.05
X96.0Y-85.55
X96.0Y-92.05
X100.6Y-76.45
X100.6Y-80.95
X107.1Y-76.45
X107.1Y-80.95
T7
X87.155Y-105.0
X87.155Y-115.0
X99.805Y-105.0
X99.805Y-115.0
X175.975Y-105.0
X175.975Y-115.0
X188.625Y-105.0
X188.625Y-115.0
T8
X77.15Y-46.95
X78.5Y-131.3
X159.9Y-46.75
X196.05Y-130.5
T3
X141.08Y-44.485G85X141.08Y-43.685
G05
X141.08Y-48.815G85X141.08Y-47.715
G05
X149.72Y-44.485G85X149.72Y-43.685
G05
X149.72Y-48.815G85X149.72Y-47.715
G05
M30
