G04 #@! TF.GenerationSoftware,KiCad,Pcbnew,9.0.2*
G04 #@! TF.CreationDate,2025-07-06T22:42:39-05:00*
G04 #@! TF.ProjectId,controller,636f6e74-726f-46c6-9c65-722e6b696361,rev?*
G04 #@! TF.SameCoordinates,Original*
G04 #@! TF.FileFunction,Soldermask,Top*
G04 #@! TF.FilePolarity,Negative*
%FSLAX46Y46*%
G04 Gerber Fmt 4.6, Leading zero omitted, Abs format (unit mm)*
G04 Created by KiCad (PCBNEW 9.0.2) date 2025-07-06 22:42:39*
%MOMM*%
%LPD*%
G01*
G04 APERTURE LIST*
G04 Aperture macros list*
%AMRoundRect*
0 Rectangle with rounded corners*
0 $1 Rounding radius*
0 $2 $3 $4 $5 $6 $7 $8 $9 X,Y pos of 4 corners*
0 Add a 4 corners polygon primitive as box body*
4,1,4,$2,$3,$4,$5,$6,$7,$8,$9,$2,$3,0*
0 Add four circle primitives for the rounded corners*
1,1,$1+$1,$2,$3*
1,1,$1+$1,$4,$5*
1,1,$1+$1,$6,$7*
1,1,$1+$1,$8,$9*
0 Add four rect primitives between the rounded corners*
20,1,$1+$1,$2,$3,$4,$5,0*
20,1,$1+$1,$4,$5,$6,$7,0*
20,1,$1+$1,$6,$7,$8,$9,0*
20,1,$1+$1,$8,$9,$2,$3,0*%
%AMRotRect*
0 Rectangle, with rotation*
0 The origin of the aperture is its center*
0 $1 length*
0 $2 width*
0 $3 Rotation angle, in degrees counterclockwise*
0 Add horizontal line*
21,1,$1,$2,0,0,$3*%
G04 Aperture macros list end*
%ADD10O,1.500000X3.000000*%
%ADD11R,2.700000X0.800000*%
%ADD12R,0.540000X0.940000*%
%ADD13R,0.700000X0.700000*%
%ADD14R,0.900000X0.950000*%
%ADD15RoundRect,0.150000X0.150000X-0.587500X0.150000X0.587500X-0.150000X0.587500X-0.150000X-0.587500X0*%
%ADD16R,1.400000X1.000000*%
%ADD17C,2.000000*%
%ADD18RotRect,1.000000X1.400000X315.000000*%
%ADD19R,1.150000X1.220000*%
%ADD20R,0.450000X0.800000*%
%ADD21RoundRect,0.200000X-0.200000X-0.275000X0.200000X-0.275000X0.200000X0.275000X-0.200000X0.275000X0*%
%ADD22R,1.000000X1.400000*%
%ADD23R,0.950000X0.900000*%
%ADD24RotRect,1.000000X1.400000X225.000000*%
%ADD25R,0.850000X0.500000*%
%ADD26R,0.700000X0.425000*%
%ADD27R,0.800000X0.800000*%
%ADD28R,1.200000X0.950000*%
%ADD29R,1.000000X1.750000*%
%ADD30R,0.960000X1.390000*%
%ADD31R,1.100000X0.600000*%
%ADD32R,1.150000X1.800000*%
%ADD33RoundRect,0.225000X-0.225000X-0.250000X0.225000X-0.250000X0.225000X0.250000X-0.225000X0.250000X0*%
%ADD34C,7.000000*%
%ADD35C,0.650000*%
%ADD36RoundRect,0.150000X0.150000X0.425000X-0.150000X0.425000X-0.150000X-0.425000X0.150000X-0.425000X0*%
%ADD37RoundRect,0.075000X0.075000X0.500000X-0.075000X0.500000X-0.075000X-0.500000X0.075000X-0.500000X0*%
%ADD38O,1.000000X2.100000*%
%ADD39O,1.000000X1.800000*%
%ADD40R,0.950000X0.450000*%
%ADD41R,3.450000X4.350000*%
%ADD42R,0.940000X0.540000*%
%ADD43C,1.600000*%
%ADD44C,2.250000*%
%ADD45C,1.500000*%
%ADD46R,1.500000X1.500000*%
%ADD47R,0.850000X1.000000*%
%ADD48RoundRect,0.050000X-0.050000X0.387500X-0.050000X-0.387500X0.050000X-0.387500X0.050000X0.387500X0*%
%ADD49RoundRect,0.050000X-0.387500X0.050000X-0.387500X-0.050000X0.387500X-0.050000X0.387500X0.050000X0*%
%ADD50R,5.600000X5.600000*%
%ADD51R,0.625000X1.000000*%
%ADD52R,0.650000X1.500000*%
%ADD53R,0.450000X0.950000*%
%ADD54R,1.390000X0.960000*%
%ADD55R,1.000000X3.500000*%
%ADD56R,1.500000X3.400000*%
%ADD57R,0.914400X1.447800*%
%ADD58R,1.700000X1.700000*%
%ADD59C,1.700000*%
%ADD60R,1.000000X0.300000*%
%ADD61R,0.300000X1.000000*%
%ADD62R,3.350000X3.350000*%
%ADD63R,1.050000X1.150000*%
%ADD64R,0.450000X1.475000*%
%ADD65RoundRect,0.200000X-0.275000X0.200000X-0.275000X-0.200000X0.275000X-0.200000X0.275000X0.200000X0*%
%ADD66R,0.950000X1.000000*%
%ADD67R,0.425000X0.700000*%
%ADD68R,0.600000X0.240000*%
%ADD69R,1.650000X2.400000*%
%ADD70R,0.250000X0.500000*%
%ADD71RotRect,1.000000X1.400000X135.000000*%
%ADD72RotRect,1.000000X1.400000X45.000000*%
G04 APERTURE END LIST*
D10*
X120350000Y-130850000D03*
X122890000Y-130850000D03*
X125430000Y-130850000D03*
X127970000Y-130850000D03*
X130510000Y-130850000D03*
X133050000Y-130850000D03*
X135590000Y-130850000D03*
X138130000Y-130850000D03*
X140670000Y-130850000D03*
X143210000Y-130850000D03*
X145750000Y-130850000D03*
X148290000Y-130850000D03*
X150830000Y-130850000D03*
X153370000Y-130850000D03*
D11*
X141600000Y-58950000D03*
X141600000Y-61150000D03*
D12*
X148350000Y-57050000D03*
X146750000Y-57050000D03*
X148350000Y-55550000D03*
X146750000Y-55550000D03*
D13*
X184600000Y-51000000D03*
X184600000Y-49600000D03*
D14*
X158375000Y-94700000D03*
X159975000Y-94700000D03*
D13*
X136850000Y-62000000D03*
X135450000Y-62000000D03*
D15*
X129800000Y-104537500D03*
X131700000Y-104537500D03*
X130750000Y-102662500D03*
D16*
X174950000Y-51750000D03*
X174950000Y-49850000D03*
D15*
X129987500Y-98287500D03*
X131887500Y-98287500D03*
X130937500Y-96412500D03*
D16*
X127850000Y-96600000D03*
X127850000Y-98500000D03*
D17*
X100600000Y-76450000D03*
X107100000Y-76450000D03*
X100600000Y-80950000D03*
X107100000Y-80950000D03*
D18*
X91269061Y-76209873D03*
X92612563Y-77553375D03*
D19*
X144650000Y-83900000D03*
X147750000Y-83900000D03*
D20*
X95450000Y-55300000D03*
X94650000Y-55300000D03*
X93850000Y-55300000D03*
X93050000Y-55300000D03*
X93050000Y-56900000D03*
X93850000Y-56900000D03*
X94650000Y-56900000D03*
X95450000Y-56900000D03*
D21*
X157550000Y-94700000D03*
X159200000Y-94700000D03*
D22*
X157300000Y-91550000D03*
X159200000Y-91550000D03*
D13*
X148700000Y-64550000D03*
X150100000Y-64550000D03*
D19*
X141250000Y-84000000D03*
X138150000Y-84000000D03*
D23*
X152057692Y-60809632D03*
X152057692Y-62409632D03*
D24*
X96430939Y-76209873D03*
X95087437Y-77553375D03*
D25*
X94341667Y-46800000D03*
X92591667Y-46800000D03*
X94341667Y-47800000D03*
X92591667Y-47800000D03*
D17*
X91500000Y-92050000D03*
X91500000Y-85550000D03*
X96000000Y-92050000D03*
X96000000Y-85550000D03*
D26*
X142700000Y-102700000D03*
X142700000Y-101900000D03*
X142700000Y-101100000D03*
X142700000Y-100300000D03*
X141200000Y-100300000D03*
X141200000Y-101100000D03*
X141200000Y-101900000D03*
X141200000Y-102700000D03*
D27*
X197362500Y-54761500D03*
X198462500Y-54761500D03*
D28*
X137400000Y-103850000D03*
X135300000Y-103850000D03*
D29*
X151700000Y-93700000D03*
X154700000Y-93700000D03*
D30*
X178455000Y-84775000D03*
X180075000Y-84775000D03*
D17*
X91500000Y-72050000D03*
X91500000Y-65550000D03*
X96000000Y-72050000D03*
X96000000Y-65550000D03*
D31*
X172350000Y-53900000D03*
X172350000Y-55800000D03*
X174550000Y-54850000D03*
D32*
X139300000Y-80150000D03*
X142200000Y-80150000D03*
D19*
X129200000Y-56900000D03*
X126100000Y-56900000D03*
D33*
X200000000Y-57490000D03*
X201550000Y-57490000D03*
D16*
X127650000Y-103600000D03*
X127650000Y-101700000D03*
D25*
X89408333Y-46800000D03*
X87658333Y-46800000D03*
X89408333Y-47800000D03*
X87658333Y-47800000D03*
D28*
X137550000Y-98200000D03*
X135450000Y-98200000D03*
D34*
X159900000Y-46750000D03*
D30*
X108005000Y-66525000D03*
X109625000Y-66525000D03*
D33*
X200000000Y-60000000D03*
X201550000Y-60000000D03*
D13*
X174000000Y-82600000D03*
X175400000Y-82600000D03*
D30*
X131790000Y-55950000D03*
X133410000Y-55950000D03*
D35*
X148290000Y-47765000D03*
X142510000Y-47765000D03*
D36*
X148600000Y-48840000D03*
X147800000Y-48840000D03*
D37*
X146650000Y-48840000D03*
X145650000Y-48840000D03*
X145150000Y-48840000D03*
X144150000Y-48840000D03*
D36*
X143000000Y-48840000D03*
X142200000Y-48840000D03*
X142200000Y-48840000D03*
X143000000Y-48840000D03*
D37*
X143650000Y-48840000D03*
X144650000Y-48840000D03*
X146150000Y-48840000D03*
X147150000Y-48840000D03*
D36*
X147800000Y-48840000D03*
X148600000Y-48840000D03*
D38*
X149720000Y-48265000D03*
D39*
X149720000Y-44085000D03*
D38*
X141080000Y-48265000D03*
D39*
X141080000Y-44085000D03*
D40*
X172600000Y-75095000D03*
X172600000Y-76365000D03*
X172600000Y-77635000D03*
X172600000Y-78905000D03*
X180400000Y-78905000D03*
X180400000Y-77635000D03*
X180400000Y-76365000D03*
X180400000Y-75095000D03*
D41*
X176500000Y-77000000D03*
D42*
X198505000Y-51915000D03*
X198505000Y-50315000D03*
D43*
X186600000Y-110000000D03*
X178000000Y-110000000D03*
D44*
X175975000Y-115000000D03*
X188625000Y-115000000D03*
X188625000Y-105000000D03*
X175975000Y-105000000D03*
D45*
X185445000Y-104200000D03*
X185420000Y-99775000D03*
X179115000Y-104275000D03*
X179070000Y-99775000D03*
D46*
X173570000Y-107500000D03*
D45*
X173570000Y-110000000D03*
X173570000Y-112500000D03*
X179800000Y-118730000D03*
X182300000Y-118730000D03*
X184800000Y-118730000D03*
D30*
X178455000Y-82025000D03*
X180075000Y-82025000D03*
D47*
X193250000Y-60500000D03*
X191750000Y-60500000D03*
D25*
X84475000Y-46800000D03*
X82725000Y-46800000D03*
X84475000Y-47800000D03*
X82725000Y-47800000D03*
D48*
X187500000Y-59962500D03*
X187100000Y-59962500D03*
X186700000Y-59962500D03*
X186300000Y-59962500D03*
X185900000Y-59962500D03*
X185500000Y-59962500D03*
X185100000Y-59962500D03*
X184700000Y-59962500D03*
X184300000Y-59962500D03*
X183900000Y-59962500D03*
X183500000Y-59962500D03*
X183100000Y-59962500D03*
X182700000Y-59962500D03*
X182300000Y-59962500D03*
D49*
X181462500Y-60800000D03*
X181462500Y-61200000D03*
X181462500Y-61600000D03*
X181462500Y-62000000D03*
X181462500Y-62400000D03*
X181462500Y-62800000D03*
X181462500Y-63200000D03*
X181462500Y-63600000D03*
X181462500Y-64000000D03*
X181462500Y-64400000D03*
X181462500Y-64800000D03*
X181462500Y-65200000D03*
X181462500Y-65600000D03*
X181462500Y-66000000D03*
D48*
X182300000Y-66837500D03*
X182700000Y-66837500D03*
X183100000Y-66837500D03*
X183500000Y-66837500D03*
X183900000Y-66837500D03*
X184300000Y-66837500D03*
X184700000Y-66837500D03*
X185100000Y-66837500D03*
X185500000Y-66837500D03*
X185900000Y-66837500D03*
X186300000Y-66837500D03*
X186700000Y-66837500D03*
X187100000Y-66837500D03*
X187500000Y-66837500D03*
D49*
X188337500Y-66000000D03*
X188337500Y-65600000D03*
X188337500Y-65200000D03*
X188337500Y-64800000D03*
X188337500Y-64400000D03*
X188337500Y-64000000D03*
X188337500Y-63600000D03*
X188337500Y-63200000D03*
X188337500Y-62800000D03*
X188337500Y-62400000D03*
X188337500Y-62000000D03*
X188337500Y-61600000D03*
X188337500Y-61200000D03*
X188337500Y-60800000D03*
D50*
X184900000Y-63400000D03*
D22*
X104750000Y-65800000D03*
X102850000Y-65800000D03*
X102850000Y-62850000D03*
X104750000Y-62850000D03*
D51*
X198275000Y-57000000D03*
X197000000Y-57000000D03*
D43*
X97780000Y-110000000D03*
X89180000Y-110000000D03*
D44*
X87155000Y-115000000D03*
X99805000Y-115000000D03*
X99805000Y-105000000D03*
X87155000Y-105000000D03*
D45*
X96625000Y-104200000D03*
X96600000Y-99775000D03*
X90295000Y-104275000D03*
X90250000Y-99775000D03*
D46*
X84750000Y-107500000D03*
D45*
X84750000Y-110000000D03*
X84750000Y-112500000D03*
X90980000Y-118730000D03*
X93480000Y-118730000D03*
X95980000Y-118730000D03*
D47*
X153650000Y-47700000D03*
X155150000Y-47700000D03*
D16*
X164200000Y-55600000D03*
X164200000Y-53700000D03*
D34*
X78500000Y-131300000D03*
D13*
X174000000Y-86500000D03*
X175400000Y-86500000D03*
D52*
X188905000Y-76800000D03*
X187635000Y-76800000D03*
X186365000Y-76800000D03*
X185095000Y-76800000D03*
X185095000Y-82200000D03*
X186365000Y-82200000D03*
X187635000Y-82200000D03*
X188905000Y-82200000D03*
D53*
X137700000Y-57650000D03*
X137050000Y-57650000D03*
X136400000Y-57650000D03*
X136400000Y-59850000D03*
X137050000Y-59850000D03*
X137700000Y-59850000D03*
D28*
X137500000Y-101000000D03*
X135400000Y-101000000D03*
D54*
X195725000Y-51745000D03*
X195725000Y-50125000D03*
D55*
X131000000Y-51321000D03*
X129000000Y-51321000D03*
D56*
X133350000Y-45771000D03*
X126650000Y-45771000D03*
D20*
X81700000Y-55050000D03*
X80900000Y-55050000D03*
X80100000Y-55050000D03*
X79300000Y-55050000D03*
X79300000Y-56650000D03*
X80100000Y-56650000D03*
X80900000Y-56650000D03*
X81700000Y-56650000D03*
D57*
X196000000Y-61552200D03*
X197625600Y-61552200D03*
D13*
X192400000Y-51000000D03*
X192400000Y-49600000D03*
D58*
X197600000Y-68560000D03*
D59*
X197600000Y-71100000D03*
X197600000Y-73640000D03*
X197600000Y-76180000D03*
X197600000Y-78720000D03*
D60*
X156850000Y-85200000D03*
X156850000Y-85700000D03*
X156850000Y-86200000D03*
X156850000Y-86700000D03*
X156850000Y-87200000D03*
X156850000Y-87700000D03*
X156850000Y-88200000D03*
D61*
X157700000Y-89050000D03*
X158200000Y-89050000D03*
X158700000Y-89050000D03*
X159200000Y-89050000D03*
X159700000Y-89050000D03*
X160200000Y-89050000D03*
X160700000Y-89050000D03*
D60*
X161550000Y-88200000D03*
X161550000Y-87700000D03*
X161550000Y-87200000D03*
X161550000Y-86700000D03*
X161550000Y-86200000D03*
X161550000Y-85700000D03*
X161550000Y-85200000D03*
D61*
X160700000Y-84350000D03*
X160200000Y-84350000D03*
X159700000Y-84350000D03*
X159200000Y-84350000D03*
X158700000Y-84350000D03*
X158200000Y-84350000D03*
X157700000Y-84350000D03*
D62*
X159200000Y-86700000D03*
D30*
X152700000Y-85700000D03*
X154320000Y-85700000D03*
D63*
X167225000Y-63025000D03*
X168675000Y-63025000D03*
X167225000Y-59675000D03*
X168675000Y-59675000D03*
D64*
X108450000Y-53600000D03*
X107800000Y-53600000D03*
X107150000Y-53600000D03*
X106500000Y-53600000D03*
X105850000Y-53600000D03*
X105200000Y-53600000D03*
X104550000Y-53600000D03*
X103900000Y-53600000D03*
X103250000Y-53600000D03*
X102600000Y-53600000D03*
X101950000Y-53600000D03*
X101300000Y-53600000D03*
X100650000Y-53600000D03*
X100000000Y-53600000D03*
X100000000Y-59476000D03*
X100650000Y-59476000D03*
X101300000Y-59476000D03*
X101950000Y-59476000D03*
X102600000Y-59476000D03*
X103250000Y-59476000D03*
X103900000Y-59476000D03*
X104550000Y-59476000D03*
X105200000Y-59476000D03*
X105850000Y-59476000D03*
X106500000Y-59476000D03*
X107150000Y-59476000D03*
X107800000Y-59476000D03*
X108450000Y-59476000D03*
D13*
X188500000Y-51000000D03*
X188500000Y-49600000D03*
D23*
X145000000Y-63050000D03*
X145000000Y-64650000D03*
D16*
X164300000Y-60750000D03*
X164300000Y-58850000D03*
D22*
X102850000Y-68750000D03*
X104750000Y-68750000D03*
D16*
X172000000Y-51750000D03*
X172000000Y-49850000D03*
D42*
X144950000Y-61850000D03*
X144950000Y-60250000D03*
D19*
X139900000Y-53050000D03*
X136800000Y-53050000D03*
D63*
X167225000Y-56025000D03*
X168675000Y-56025000D03*
X167225000Y-52675000D03*
X168675000Y-52675000D03*
D13*
X108750000Y-63200000D03*
X110150000Y-63200000D03*
D25*
X99275000Y-46800000D03*
X97525000Y-46800000D03*
X99275000Y-47800000D03*
X97525000Y-47800000D03*
D65*
X152002692Y-57484632D03*
X152002692Y-59134632D03*
D34*
X77150000Y-46950000D03*
D66*
X192900000Y-65000000D03*
X192900000Y-63150000D03*
X191350000Y-63150000D03*
X191350000Y-65000000D03*
D47*
X153650000Y-50250000D03*
X155150000Y-50250000D03*
D31*
X172350000Y-58450000D03*
X172350000Y-60350000D03*
X174550000Y-59400000D03*
D67*
X88700000Y-54800000D03*
X87900000Y-54800000D03*
X87100000Y-54800000D03*
X86300000Y-54800000D03*
X86300000Y-56300000D03*
X87100000Y-56300000D03*
X87900000Y-56300000D03*
X88700000Y-56300000D03*
D13*
X152300000Y-88700000D03*
X153700000Y-88700000D03*
D32*
X139300000Y-77600000D03*
X142200000Y-77600000D03*
D53*
X134050000Y-57600000D03*
X133400000Y-57600000D03*
X132750000Y-57600000D03*
X132750000Y-59800000D03*
X133400000Y-59800000D03*
X134050000Y-59800000D03*
D34*
X196050000Y-130500000D03*
D68*
X147050000Y-59450000D03*
X147050000Y-59950000D03*
X147050000Y-60450000D03*
X147050000Y-60950000D03*
X147050000Y-61450000D03*
X149850000Y-61450000D03*
X149850000Y-60950000D03*
X149850000Y-60450000D03*
X149850000Y-59950000D03*
X149850000Y-59450000D03*
D69*
X148450000Y-60450000D03*
D70*
X148200000Y-61900000D03*
X148700000Y-61900000D03*
X148200000Y-59000000D03*
X148700000Y-59000000D03*
D71*
X96430939Y-81371751D03*
X95087437Y-80028249D03*
D57*
X196000000Y-64000000D03*
X197625600Y-64000000D03*
D17*
X80600000Y-76450000D03*
X87100000Y-76450000D03*
X80600000Y-80950000D03*
X87100000Y-80950000D03*
D72*
X91269061Y-81371751D03*
X92612563Y-80028249D03*
D30*
X137060000Y-56000000D03*
X135440000Y-56000000D03*
M02*
